<svg width="30" height="22" viewBox="0 0 30 22" fill="none" xmlns="http://www.w3.org/2000/svg">
<path d="M27.3633 0.453125H2.63672C1.18582 0.453125 0 1.63373 0 3.08984V18.9102C0 20.3668 1.18658 21.5469 2.63672 21.5469H27.3633C28.8142 21.5469 30 20.3663 30 18.9102V3.08984C30 1.63338 28.8136 0.453125 27.3633 0.453125ZM26.9584 2.21094L15.6811 13.525C15.3375 13.8697 14.6627 13.8699 14.3189 13.525L3.0416 2.21094H26.9584ZM1.75781 18.587V3.41299L9.32022 11L1.75781 18.587ZM3.0416 19.7891L10.5612 12.245L13.074 14.766C14.1037 15.7991 15.8967 15.7987 16.9261 14.766L19.4389 12.2451L26.9584 19.7891H3.0416ZM28.2422 18.587L20.6798 11L28.2422 3.41299V18.587Z" fill="#CCCCCC"/>
</svg>
