<svg width="30" height="30" viewBox="0 0 30 30" fill="none" xmlns="http://www.w3.org/2000/svg">
<path d="M25.1543 3.98437C24.8292 3.99872 24.5264 4.0934 24.2598 4.20117C24.01 4.30164 23.0558 4.71091 21.5527 5.35547C20.0484 6.00059 18.0565 6.85578 15.9316 7.76953C11.682 9.59704 6.90421 11.6542 4.45703 12.707C4.36501 12.7466 4.04392 12.8492 3.70312 13.1152C3.36233 13.3813 3 13.9326 3 14.5469C3 15.0422 3.23607 15.5343 3.5332 15.8281C3.83034 16.1219 4.14475 16.2671 4.41406 16.377C5.39123 16.7757 8.42185 18.0159 8.99414 18.25C9.19555 18.867 10.2925 22.2225 10.5469 23.0449C10.7146 23.5876 10.8742 23.9275 11.082 24.1973C11.1859 24.3321 11.3067 24.4503 11.4531 24.543C11.5116 24.58 11.5758 24.6085 11.6406 24.6348L11.6445 24.6367C11.6595 24.6427 11.6723 24.6529 11.6875 24.6582C11.7161 24.6682 11.7352 24.6694 11.7734 24.6777C11.9258 24.7269 12.0795 24.7578 12.2168 24.7578C12.802 24.7578 13.1602 24.4355 13.1602 24.4355L13.1816 24.4199L16.1914 21.8164L19.8418 25.2695C19.8932 25.3422 20.3725 26 21.4297 26C22.0574 26 22.5553 25.685 22.875 25.3496C23.1947 25.0142 23.3938 24.6618 23.4785 24.2188V24.2168C23.5577 23.7981 26.9219 6.52734 26.9219 6.52734L26.916 6.55078C27.0145 6.10127 27.0403 5.68264 26.9316 5.26953C26.823 4.85642 26.5366 4.46089 26.1816 4.24805C25.8267 4.03525 25.4794 3.97003 25.1543 3.98437ZM24.9668 6.07422C24.962 6.1034 24.9704 6.08873 24.9629 6.12305L24.9609 6.13477L24.959 6.14648C24.959 6.14648 21.6365 23.1964 21.5137 23.8457C21.5227 23.7967 21.4816 23.8942 21.4395 23.9531C21.3799 23.9121 21.2578 23.8594 21.2578 23.8594L21.2383 23.8379L16.252 19.1211L12.7266 22.168L13.7754 17.9688C13.7754 17.9688 20.3316 11.1821 20.7266 10.7871C21.0446 10.4711 21.1113 10.361 21.1113 10.252C21.1113 10.106 21.0352 10 20.8652 10C20.7122 10 20.5065 10.1487 20.3965 10.2187C18.9634 11.1323 12.6718 14.7991 9.85156 16.4395C9.40338 16.256 6.28966 14.9815 5.23438 14.5508C5.24236 14.5473 5.23973 14.5485 5.24805 14.5449C7.69587 13.4918 12.4716 11.4347 16.7207 9.60742C18.8452 8.6938 20.8387 7.83796 22.3418 7.19336C23.8218 6.55868 24.8501 6.12189 24.9668 6.07422Z" fill="#031923"/>
</svg>
