<svg width="60" height="60" viewBox="0 0 60 60" fill="none" xmlns="http://www.w3.org/2000/svg">
<path d="M4.0788 44.2168V5.468C4.08041 4.92761 4.29579 4.40981 4.67791 4.0277C5.06002 3.64559 5.57782 3.4302 6.11821 3.42859H53.0246C53.565 3.4302 54.0828 3.64559 54.4649 4.0277C54.847 4.40981 55.0624 4.92761 55.064 5.468V44.2168H4.0788Z" fill="#205B75"/>
<path d="M59.1429 52.3744V55.4335C59.1429 55.704 59.0354 55.9633 58.8442 56.1546C58.653 56.3458 58.3936 56.4532 58.1232 56.4532H1.0197C0.749262 56.4532 0.489896 56.3458 0.298664 56.1546C0.107433 55.9633 0 55.704 0 55.4335V52.3744L4.07882 42.1774H55.064L59.1429 52.3744Z" fill="#CADBEA"/>
<path d="M59.1429 52.3744V55.4335C59.1429 55.7039 59.0354 55.9633 58.8442 56.1545C58.653 56.3458 58.3936 56.4532 58.1232 56.4532H1.0197C0.749262 56.4532 0.489896 56.3458 0.298664 56.1545C0.107433 55.9633 0 55.7039 0 55.4335V52.3744H59.1429Z" fill="#ABBBCC"/>
<path d="M45.1423 7.50745H49.9655C50.236 7.50745 50.4954 7.61488 50.6866 7.80611C50.8778 7.99734 50.9852 8.25671 50.9852 8.52715V37.0789C50.9852 37.3493 50.8778 37.6087 50.6866 37.7999C50.4954 37.9911 50.236 38.0986 49.9655 38.0986H9.17736C8.90692 38.0986 8.64755 37.9911 8.45632 37.7999C8.26509 37.6087 8.15765 37.3493 8.15765 37.0789V8.52715C8.15765 8.25671 8.26509 7.99734 8.45632 7.80611C8.64755 7.61488 8.90692 7.50745 9.17736 7.50745H45.1423Z" fill="#114559"/>
<path d="M18.3547 52.3744L20.1381 47.9173C20.2137 47.7281 20.3443 47.5658 20.5129 47.4515C20.6816 47.3372 20.8807 47.276 21.0844 47.2759H38.0584C38.2622 47.276 38.4612 47.3372 38.6299 47.4515C38.7986 47.5658 38.9291 47.7281 39.0047 47.9173L40.7882 52.3744H18.3547Z" fill="#E1EAF4"/>
<path d="M14.2759 17.7045C14.4775 17.7045 14.6746 17.6446 14.8423 17.5326C15.0099 17.4205 15.1406 17.2613 15.2178 17.075C15.2949 16.8887 15.3151 16.6837 15.2758 16.4859C15.2365 16.2881 15.1394 16.1065 14.9968 15.9639L13.6783 14.6454L14.9968 13.3269C15.1826 13.1346 15.2853 12.877 15.283 12.6096C15.2807 12.3423 15.1734 12.0865 14.9844 11.8975C14.7953 11.7084 14.5396 11.6012 14.2722 11.5988C14.0048 11.5965 13.7473 11.6993 13.5549 11.885L11.5155 13.9245C11.3244 14.1157 11.217 14.375 11.217 14.6454C11.217 14.9158 11.3244 15.1751 11.5155 15.3663L13.5549 17.4057C13.7461 17.597 14.0055 17.7044 14.2759 17.7045ZM23.752 17.4057C23.9432 17.5969 24.2025 17.7043 24.4729 17.7043C24.7433 17.7043 25.0026 17.5969 25.1939 17.4057L27.2333 15.3663C27.4244 15.1751 27.5318 14.9158 27.5318 14.6454C27.5318 14.375 27.4244 14.1157 27.2333 13.9245L25.1939 11.885C25.0015 11.6993 24.744 11.5965 24.4766 11.5988C24.2092 11.6012 23.9535 11.7084 23.7644 11.8975C23.5753 12.0865 23.4681 12.3423 23.4658 12.6096C23.4635 12.877 23.5662 13.1346 23.752 13.3269L25.0705 14.6454L23.752 15.9639C23.5608 16.1551 23.4534 16.4144 23.4534 16.6848C23.4534 16.9552 23.5608 17.2145 23.752 17.4057ZM17.8989 17.6025C18.0187 17.6624 18.1492 17.6982 18.2828 17.7076C18.4165 17.7171 18.5507 17.7001 18.6778 17.6577C18.8049 17.6153 18.9223 17.5482 19.0235 17.4604C19.1247 17.3725 19.2075 17.2656 19.2673 17.1457L21.3067 13.0669C21.3666 12.947 21.4023 12.8166 21.4117 12.6829C21.4211 12.5493 21.4042 12.4151 21.3617 12.288C21.3193 12.161 21.2523 12.0435 21.1645 11.9423C21.0766 11.8412 20.9698 11.7583 20.8499 11.6984C20.7301 11.6386 20.5996 11.6029 20.466 11.5935C20.3323 11.584 20.1981 11.601 20.0711 11.6434C19.944 11.6859 19.8265 11.7529 19.7254 11.8407C19.6242 11.9285 19.5413 12.0354 19.4815 12.1553L17.4421 16.2341C17.3821 16.3539 17.3464 16.4844 17.337 16.618C17.3275 16.7517 17.3445 16.8859 17.3869 17.013C17.4293 17.1401 17.4964 17.2575 17.5842 17.3587C17.6721 17.4599 17.779 17.5427 17.8989 17.6025Z" fill="white"/>
<path d="M17.335 20.7636C17.335 20.4932 17.2275 20.2338 17.0363 20.0426C16.8451 19.8513 16.5857 19.7439 16.3153 19.7439H13.2562C12.9857 19.7439 12.7263 19.8513 12.5351 20.0426C12.3439 20.2338 12.2365 20.4932 12.2365 20.7636C12.2365 21.034 12.3439 21.2934 12.5351 21.4846C12.7263 21.6759 12.9857 21.7833 13.2562 21.7833H16.3153C16.5857 21.7833 16.8451 21.6759 17.0363 21.4846C17.2275 21.2934 17.335 21.034 17.335 20.7636Z" fill="#E5BB33"/>
<path d="M19.3744 20.7636C19.3744 21.034 19.4818 21.2934 19.6731 21.4846C19.8643 21.6759 20.1237 21.7833 20.3941 21.7833H28.5517C28.8222 21.7833 29.0815 21.6759 29.2728 21.4846C29.464 21.2934 29.5714 21.034 29.5714 20.7636C29.5714 20.4932 29.464 20.2338 29.2728 20.0426C29.0815 19.8513 28.8222 19.7439 28.5517 19.7439H20.3941C20.1237 19.7439 19.8643 19.8513 19.6731 20.0426C19.4818 20.2338 19.3744 20.4932 19.3744 20.7636Z" fill="#EB6374"/>
<path d="M24.4729 24.8423C24.4729 24.5719 24.3655 24.3125 24.1743 24.1213C23.983 23.9301 23.7237 23.8226 23.4532 23.8226H15.2956C15.0251 23.8226 14.7658 23.9301 14.5745 24.1213C14.3833 24.3125 14.2759 24.5719 14.2759 24.8423C14.2759 25.1128 14.3833 25.3721 14.5745 25.5634C14.7658 25.7546 15.0251 25.862 15.2956 25.862H23.4532C23.7237 25.862 23.983 25.7546 24.1743 25.5634C24.3655 25.3721 24.4729 25.1128 24.4729 24.8423ZM15.2956 27.9014C15.0251 27.9014 14.7658 28.0089 14.5745 28.2001C14.3833 28.3913 14.2759 28.6507 14.2759 28.9212C14.2759 29.1916 14.3833 29.451 14.5745 29.6422C14.7658 29.8334 15.0251 29.9409 15.2956 29.9409H20.3941C20.6645 29.9409 20.9239 29.8334 21.1151 29.6422C21.3064 29.451 21.4138 29.1916 21.4138 28.9212C21.4138 28.6507 21.3064 28.3913 21.1151 28.2001C20.9239 28.0089 20.6645 27.9014 20.3941 27.9014H15.2956Z" fill="#E5BB33"/>
<path d="M40.7882 29.9409H43.8473C44.1178 29.9409 44.3771 29.8335 44.5684 29.6422C44.7596 29.451 44.867 29.1916 44.867 28.9212C44.867 28.6508 44.7596 28.3914 44.5684 28.2002C44.3771 28.0089 44.1178 27.9015 43.8473 27.9015H40.7882C40.5178 27.9015 40.2584 28.0089 40.0672 28.2002C39.8759 28.3914 39.7685 28.6508 39.7685 28.9212C39.7685 29.1916 39.8759 29.451 40.0672 29.6422C40.2584 29.8335 40.5178 29.9409 40.7882 29.9409Z" fill="#82ECFF"/>
<path d="M23.4532 28.9212C23.4532 29.1916 23.5607 29.451 23.7519 29.6422C23.9431 29.8335 24.2025 29.9409 24.473 29.9409H36.7094C36.9798 29.9409 37.2392 29.8335 37.4304 29.6422C37.6217 29.451 37.7291 29.1916 37.7291 28.9212C37.7291 28.6508 37.6217 28.3914 37.4304 28.2002C37.2392 28.0089 36.9798 27.9015 36.7094 27.9015H24.473C24.2025 27.9015 23.9431 28.0089 23.7519 28.2002C23.5607 28.3914 23.4532 28.6508 23.4532 28.9212Z" fill="#EB6374"/>
<path d="M17.335 31.9803H15.2956C15.0251 31.9803 14.7658 32.0878 14.5745 32.279C14.3833 32.4702 14.2759 32.7296 14.2759 33.0001C14.2759 33.2705 14.3833 33.5299 14.5745 33.7211C14.7658 33.9123 15.0251 34.0198 15.2956 34.0198H17.335C17.6054 34.0198 17.8648 33.9123 18.056 33.7211C18.2473 33.5299 18.3547 33.2705 18.3547 33.0001C18.3547 32.7296 18.2473 32.4702 18.056 32.279C17.8648 32.0878 17.6054 31.9803 17.335 31.9803Z" fill="#E5BB33"/>
<path d="M43.8473 31.9803H32.6305C32.3601 31.9803 32.1007 32.0878 31.9095 32.279C31.7183 32.4702 31.6108 32.7296 31.6108 33.0001C31.6108 33.2705 31.7183 33.5299 31.9095 33.7211C32.1007 33.9123 32.3601 34.0198 32.6305 34.0198H43.8473C44.1177 34.0198 44.3771 33.9123 44.5683 33.7211C44.7596 33.5299 44.867 33.2705 44.867 33.0001C44.867 32.7296 44.7596 32.4702 44.5683 32.279C44.3771 32.0878 44.1177 31.9803 43.8473 31.9803Z" fill="#82ECFF"/>
<path d="M28.5517 31.9803H21.4138C21.1434 31.9803 20.884 32.0878 20.6928 32.279C20.5015 32.4702 20.3941 32.7296 20.3941 33.0001C20.3941 33.2705 20.5015 33.5299 20.6928 33.7211C20.884 33.9123 21.1434 34.0198 21.4138 34.0198H28.5517C28.8222 34.0198 29.0815 33.9123 29.2728 33.7211C29.464 33.5299 29.5714 33.2705 29.5714 33.0001C29.5714 32.7296 29.464 32.4702 29.2728 32.279C29.0815 32.0878 28.8222 31.9803 28.5517 31.9803Z" fill="#EB6374"/>
</svg>
