<svg width="30" height="30" viewBox="0 0 30 30" fill="none" xmlns="http://www.w3.org/2000/svg">
<path d="M3.75 26.25V3.75H26.25V26.25H3.75Z" fill="#F7DF1E"/>
<path d="M18.4611 20.5919C18.8936 21.2944 19.3636 21.9675 20.3593 21.9675C21.1955 21.9675 21.6343 21.5519 21.6343 20.9769C21.6343 20.2887 21.1805 20.0444 20.2605 19.6438L19.7561 19.4288C18.3005 18.8113 17.3324 18.0375 17.3324 16.4031C17.3324 14.8969 18.4855 13.7506 20.2874 13.7506C21.5705 13.7506 22.4924 14.195 23.1574 15.3587L21.5861 16.3631C21.2405 15.7456 20.8668 15.5025 20.2874 15.5025C19.6961 15.5025 19.3218 15.8756 19.3218 16.3631C19.3218 16.9656 19.6968 17.2094 20.5624 17.5825L21.0668 17.7975C22.7824 18.5281 23.7499 19.2744 23.7499 20.9519C23.7499 22.7594 22.3224 23.75 20.4061 23.75C18.5318 23.75 17.4674 22.8094 16.8749 21.645L18.4611 20.5919ZM11.2199 20.6431C11.5361 21.2094 12.0168 21.645 12.708 21.645C13.3693 21.645 13.7499 21.3838 13.7499 20.3681V13.75H15.833V20.6881C15.833 22.7925 14.6124 23.75 12.8299 23.75C11.2193 23.75 10.0568 22.6587 9.58301 21.645L11.2199 20.6431Z" fill="#000001"/>
</svg>
