<svg width="30" height="30" viewBox="0 0 30 30" fill="none" xmlns="http://www.w3.org/2000/svg">
<g clip-path="url(#clip0_1_400)">
<path d="M14.4287 5.66164C12.8759 5.64699 11.7041 5.72024 10.7226 6.22561C10.3198 6.43069 10.0341 6.69436 9.8144 7.00197C9.69722 7.15578 9.58735 7.29494 9.53608 7.61721C9.50679 7.77102 9.48481 8.02736 9.64594 8.30569C9.80708 8.59133 10.1513 8.78176 10.3857 8.81838C10.5615 8.84035 10.935 8.99416 11.0009 9.08205C11.1547 9.30178 11.2133 9.46291 11.2353 9.5508C11.2573 9.63869 11.2499 9.5801 11.2499 9.5801V9.66799C11.2499 9.66799 11.3085 10.5908 11.2719 11.543C11.2499 12.0117 11.206 12.5025 11.1328 12.8321C11.0595 13.1616 10.8764 13.2422 11.1401 13.0884C10.957 13.1983 11.0229 13.2422 10.7958 13.125C10.5615 13.0152 9.95356 12.5025 9.15522 11.0669C8.35688 9.62405 7.77827 8.87697 7.64643 8.71584C7.59516 8.56936 7.47065 8.26906 7.04585 7.93947C6.49653 7.51467 5.93257 7.50734 5.93257 7.50734L5.8813 7.50002H1.78706C1.78706 7.50002 1.55268 7.50734 1.28169 7.56594C1.01069 7.62453 0.622508 7.69045 0.256298 8.14455H0.248974C-0.124562 8.62063 -0.058644 9.05276 -0.0293471 9.31643C0.007274 9.58742 0.0878404 9.79983 0.0878404 9.79983L0.102489 9.84377L0.124462 9.88772C0.124462 9.88772 3.2519 16.5601 6.98726 20.625C10.4956 24.4483 14.5605 24.375 14.5605 24.375H16.8676L16.9189 24.3677C16.9189 24.3677 17.6586 24.4043 18.2812 23.7085C18.5961 23.3496 18.6694 23.0127 18.706 22.7637C18.75 22.5073 18.7499 22.3023 18.7499 22.3023V22.3609C18.7499 22.3609 18.7792 21.8775 18.9111 21.3721C18.977 21.1231 19.0722 20.874 19.1601 20.7349C19.2041 20.6543 19.2041 20.6763 19.2187 20.6543C19.3798 20.7715 19.6435 21.0425 19.9218 21.3867C20.4931 22.0679 21.1376 23.0127 22.0385 23.6646C22.6904 24.126 23.3056 24.3311 23.7744 24.4043C24.0893 24.4556 24.3164 24.4483 24.4702 24.4336L27.6562 24.375H27.6855C27.6855 24.375 28.3447 24.3604 29.0039 23.9429C29.3261 23.7378 29.6997 23.3643 29.8242 22.8296C29.956 22.2949 29.8095 21.7163 29.5019 21.1817C29.6044 21.3648 29.4799 21.1231 29.3847 20.9326C29.2895 20.7422 29.143 20.4859 28.9233 20.1636C28.4985 19.5337 27.7954 18.6475 26.6308 17.5196C26.0815 16.9922 25.7299 16.6992 25.5102 16.4942C25.5761 16.3989 25.5834 16.3916 25.8325 16.0987C26.228 15.6372 26.8066 14.9561 27.539 13.938C28.4179 12.7075 29.0551 11.7041 29.4653 10.8692C29.8754 10.0415 30.205 9.35305 29.8388 8.50344C29.6411 8.04201 29.2895 7.86623 29.0332 7.75637C28.7695 7.64651 28.5351 7.60256 28.3154 7.56594C27.8833 7.50002 27.5024 7.50002 27.5024 7.50002L23.789 7.52932C23.6791 7.50734 23.2543 7.42678 22.705 7.77834C22.163 8.11526 22.0385 8.47414 22.0092 8.58401C21.9213 8.70852 21.3061 9.5801 20.4492 11.1035C19.5849 12.6416 18.999 13.0591 18.9257 13.0957C18.9038 13.0738 18.9477 13.0811 18.8452 13.0225C18.8012 12.9859 18.7573 12.9566 18.7207 12.5611C18.6914 12.1655 18.728 11.543 18.728 10.8106C18.728 9.23586 18.8671 8.41555 18.7866 7.63186C18.7499 7.23635 18.5888 6.75295 18.2373 6.43069C17.8857 6.11574 17.5048 5.99856 17.1093 5.89602C16.4868 5.74221 15.6445 5.67629 14.4287 5.66164ZM14.414 7.53664C15.5493 7.55129 16.3476 7.63918 16.6406 7.71242C16.8896 7.77834 16.9262 7.80764 16.9189 7.79299C16.9189 7.80764 16.9189 7.80031 16.9189 7.82229C16.9482 8.13723 16.853 9.14797 16.853 10.8106C16.853 11.4624 16.8017 12.0923 16.853 12.7222C16.9042 13.3521 17.1313 14.1211 17.7978 14.5752H17.8051C17.7246 14.5239 18.6474 15.2124 19.5263 14.8975C20.4052 14.5752 21.101 13.7696 22.0898 12.0191C22.9541 10.4663 23.5913 9.59475 23.5913 9.59475L23.6499 9.50686L23.6938 9.41897C23.6938 9.41897 23.6791 9.41164 23.6938 9.40432L27.5024 9.37502C27.5024 9.37502 27.7661 9.37502 28.0224 9.41897C28.0297 9.41897 28.0371 9.41897 28.0444 9.41897C28.0078 9.43361 28.0371 9.52883 27.7807 10.0488C27.4511 10.7154 26.8579 11.6675 26.0156 12.8467C25.3198 13.8062 24.7998 14.4287 24.4116 14.8828C24.0234 15.3296 23.7304 15.542 23.54 16.128C23.4448 16.4136 23.4667 16.8384 23.6059 17.124C23.7377 17.4024 23.8989 17.5562 24.06 17.71C24.3823 18.0176 24.7631 18.3179 25.3198 18.8672C26.4111 19.9219 27.0263 20.6983 27.3706 21.211C27.5463 21.4746 27.6489 21.6577 27.7148 21.7896C27.7807 21.9214 27.7368 21.8701 27.8833 22.1192C28.0078 22.3462 27.9858 22.3755 27.9858 22.3609C27.8613 22.4341 27.5463 22.5 27.539 22.5L24.353 22.5586L24.2651 22.5806C24.2651 22.5806 24.2724 22.5879 24.0747 22.5586C23.8696 22.522 23.5473 22.4341 23.1372 22.1411C22.6318 21.7822 21.9946 20.9473 21.3647 20.1856C21.0571 19.812 20.7421 19.4458 20.3466 19.1529C19.9511 18.8599 19.3286 18.5889 18.6914 18.8013C18.142 18.9771 17.7832 19.3799 17.5561 19.7534C17.3291 20.1343 17.1972 20.5298 17.0947 20.8887C16.9042 21.6138 16.8749 22.2656 16.8749 22.2656V22.3242C16.8749 22.3242 16.875 22.3682 16.8603 22.4341C16.8237 22.4488 16.7724 22.4854 16.7431 22.5H14.5019C14.5019 22.5 11.4038 22.6612 8.36421 19.3653C5.11226 15.813 2.21919 9.87307 1.97749 9.37502H5.74946C5.78608 9.38967 5.91792 9.44094 5.90327 9.43361C5.81538 9.36037 5.94722 9.52151 5.94722 9.52151L6.00581 9.66067L6.10835 9.77785C6.10835 9.77785 6.68696 10.481 7.5146 11.9751C8.40083 13.5791 9.1479 14.4141 9.98286 14.8169C10.8178 15.2197 11.6967 14.9341 12.0703 14.7217C12.7661 14.3189 12.8466 13.7549 12.9638 13.2349C13.081 12.7149 13.1176 12.1582 13.1396 11.6162C13.1835 10.5762 13.1249 9.68996 13.1249 9.62405C13.1176 9.60207 13.1176 9.34572 13.0444 9.0674C12.9638 8.78176 12.8173 8.40822 12.539 8.01272C12.4218 7.85158 12.312 7.93215 12.1874 7.81496C12.7075 7.66848 13.2641 7.52199 14.414 7.53664Z" fill="#031923"/>
</g>
<defs>
<clipPath id="clip0_1_400">
<rect width="30" height="30" fill="white"/>
</clipPath>
</defs>
</svg>
